<svg width="14" height="12" viewBox="0 0 14 12" fill="none" xmlns="http://www.w3.org/2000/svg">
<path d="M9.07087 9.01181V8.38583C9.48819 8.14961 9.84252 7.76772 10.1339 7.24016C10.4331 6.7126 10.5827 6.15748 10.5827 5.5748C10.5827 5.10236 10.5709 4.66142 10.5472 4.25197C10.5236 3.83465 10.4409 3.47244 10.2992 3.16535C10.1575 2.85827 9.93307 2.61811 9.62598 2.44488C9.3189 2.26378 8.88189 2.17323 8.31496 2.17323C7.74803 2.17323 7.31102 2.26378 7.00394 2.44488C6.69685 2.61811 6.47244 2.85827 6.33071 3.16535C6.18898 3.47244 6.1063 3.83465 6.08268 4.25197C6.05906 4.66142 6.04724 5.10236 6.04724 5.5748C6.04724 6.15748 6.19291 6.7126 6.48425 7.24016C6.78346 7.76772 7.14173 8.14961 7.55906 8.38583V9.01181C6.92126 9.05906 6.32283 9.17323 5.76378 9.35433C5.2126 9.52756 4.73228 9.74803 4.32283 10.0157C3.92126 10.2756 3.60236 10.5787 3.36614 10.9252C3.1378 11.2638 3.02362 11.622 3.02362 12H13.6063C13.6063 11.622 13.4882 11.2638 13.252 10.9252C13.0236 10.5787 12.7047 10.2756 12.2953 10.0157C11.8937 9.74803 11.4134 9.52756 10.8543 9.35433C10.3031 9.17323 9.70866 9.05906 9.07087 9.01181ZM2.44488 7.1811C2.36614 7.2126 2.2874 7.24409 2.20866 7.27559C2.1378 7.30709 2.06299 7.33858 1.98425 7.37008H5.59843C5.59055 7.33858 5.57874 7.30709 5.56299 7.27559C5.54724 7.24409 5.5315 7.2126 5.51575 7.1811H2.44488ZM0.318898 8.69291C0.30315 8.72441 0.283465 8.75591 0.259843 8.7874C0.244094 8.8189 0.228346 8.85039 0.212598 8.88189H4.61811C4.69685 8.85039 4.77165 8.8189 4.84252 8.7874C4.92126 8.75591 4.99606 8.72441 5.06693 8.69291H0.318898ZM1.03937 7.93701C0.992126 7.9685 0.948819 8 0.909449 8.0315C0.877953 8.06299 0.84252 8.09449 0.80315 8.12598H6.04724C6.02362 8.09449 6 8.06299 5.97638 8.0315C5.96063 8 5.94094 7.9685 5.91732 7.93701H1.03937ZM3.98031 6.80315C3.81496 6.82677 3.65354 6.85433 3.49606 6.88583C3.34646 6.91732 3.19685 6.95276 3.04724 6.99213H5.44488C5.43701 6.96063 5.4252 6.92913 5.40945 6.89764C5.40157 6.86614 5.3937 6.83465 5.38583 6.80315H3.98031ZM4.53543 6.4252V6.61417H5.32677C5.3189 6.58268 5.31102 6.55118 5.30315 6.51968C5.30315 6.48819 5.29921 6.45669 5.29134 6.4252H4.53543ZM4.41732 6.04724C4.44094 6.06299 4.46063 6.0748 4.47638 6.08268C4.5 6.09055 4.51968 6.10236 4.53543 6.11811V6.23622H5.25591C5.24803 6.20472 5.24016 6.17323 5.23228 6.14173C5.23228 6.11024 5.22835 6.07874 5.22047 6.04724H4.41732ZM0.023622 9.44882C0.015748 9.48032 0.00787402 9.51181 0 9.54331C0 9.5748 0 9.6063 0 9.6378H3.40157C3.44094 9.6063 3.48031 9.5748 3.51969 9.54331C3.56693 9.51181 3.61024 9.48032 3.64961 9.44882H0.023622ZM1.29921 7.74803H5.79921C5.79134 7.73228 5.78346 7.71654 5.77559 7.70079C5.76772 7.68504 5.75591 7.66929 5.74016 7.65354C5.73228 7.6378 5.72441 7.62205 5.71654 7.6063C5.70866 7.59055 5.70079 7.5748 5.69291 7.55906H1.61811C1.56299 7.59055 1.50787 7.62205 1.45276 7.65354C1.39764 7.68504 1.34646 7.71654 1.29921 7.74803ZM3.02362 2.64567C3.02362 2.67717 3.02362 2.70866 3.02362 2.74016C3.02362 2.77165 3.02362 2.80315 3.02362 2.83465H5.55118C5.55118 2.82677 5.55512 2.8189 5.56299 2.81102C5.57087 2.7874 5.58268 2.75984 5.59843 2.72835C5.61417 2.69685 5.62992 2.66929 5.64567 2.64567H3.02362ZM0.129921 9.07087C0.114173 9.10236 0.102362 9.13386 0.0944882 9.16535C0.0866142 9.19685 0.0748032 9.22835 0.0590551 9.25984H3.92126C3.97638 9.22835 4.0315 9.19685 4.08661 9.16535C4.14173 9.13386 4.19685 9.10236 4.25197 9.07087H0.129921ZM3.50787 0.566929H7.0748C7.04331 0.535433 7.01181 0.503937 6.98031 0.472441C6.95669 0.440945 6.92913 0.409449 6.89764 0.377953H3.68504C3.65354 0.409449 3.62205 0.440945 3.59055 0.472441C3.56693 0.503937 3.53937 0.535433 3.50787 0.566929ZM0.46063 8.50394H5.63386C5.72835 8.47244 5.82283 8.44488 5.91732 8.42126C6.01968 8.39764 6.12205 8.37402 6.22441 8.35039C6.21654 8.34252 6.20866 8.33858 6.20079 8.33858C6.20079 8.33071 6.20079 8.32283 6.20079 8.31496H0.614173C0.590551 8.34646 0.562992 8.37795 0.531496 8.40945C0.507874 8.44094 0.484252 8.47244 0.46063 8.50394ZM3.9685 5.66929C4 5.70079 4.0315 5.73228 4.06299 5.76378C4.10236 5.79528 4.1378 5.82677 4.16929 5.85827H5.20866C5.20866 5.82677 5.20472 5.79528 5.19685 5.76378C5.19685 5.73228 5.19685 5.70079 5.19685 5.66929H3.9685ZM3.66142 5.29134C3.68504 5.32283 3.70866 5.35433 3.73228 5.38583C3.75591 5.41732 3.77953 5.44882 3.80315 5.48031H5.19685C5.19685 5.44882 5.19685 5.41732 5.19685 5.38583C5.19685 5.35433 5.19685 5.32283 5.19685 5.29134H3.66142ZM3.2126 1.13386C3.20472 1.16535 3.19685 1.19685 3.18898 1.22835C3.1811 1.25984 3.17323 1.29134 3.16535 1.32283H7.41732C7.40945 1.29134 7.40157 1.25984 7.3937 1.22835C7.38583 1.19685 7.37795 1.16535 7.37008 1.13386H3.2126ZM3.11811 1.51181C3.11811 1.54331 3.11417 1.5748 3.1063 1.6063C3.09843 1.6378 3.09449 1.66929 3.09449 1.70079H6.59055C6.65354 1.66142 6.72047 1.62598 6.79134 1.59449C6.87008 1.56299 6.94882 1.53543 7.02756 1.51181H3.11811ZM3.03543 2.26772C3.03543 2.29921 3.03543 2.33071 3.03543 2.3622C3.03543 2.3937 3.03543 2.4252 3.03543 2.45669H5.75197C5.77559 2.4252 5.79921 2.3937 5.82283 2.3622C5.84646 2.33071 5.87008 2.29921 5.8937 2.26772H3.03543ZM3.07087 1.88976C3.06299 1.92126 3.05906 1.95276 3.05906 1.98425C3.05906 2.01575 3.05512 2.04724 3.04724 2.07874H6.07087C6.10236 2.04724 6.1378 2.01575 6.17717 1.98425C6.21654 1.95276 6.25591 1.92126 6.29528 1.88976H3.07087ZM4.42913 0C4.34252 0.023622 4.25591 0.0511811 4.16929 0.0826772C4.09055 0.114173 4.01968 0.149606 3.95669 0.188976H6.62598C6.56299 0.149606 6.48819 0.114173 6.40157 0.0826772C6.32283 0.0511811 6.23622 0.023622 6.14173 0H4.42913ZM3.43701 4.91339C3.45276 4.94488 3.4685 4.97638 3.48425 5.00787C3.5 5.03937 3.51969 5.07087 3.54331 5.10236H5.19685C5.19685 5.07087 5.19685 5.03937 5.19685 5.00787C5.19685 4.97638 5.19685 4.94488 5.19685 4.91339H3.43701ZM3.37795 0.755906C3.3622 0.787402 3.34646 0.818898 3.33071 0.850394C3.31496 0.88189 3.29921 0.913386 3.28346 0.944882H7.29921C7.28346 0.913386 7.26772 0.88189 7.25197 0.850394C7.23622 0.818898 7.22047 0.787402 7.20472 0.755906H3.37795ZM3.14173 4.15748C3.14961 4.18898 3.15748 4.22047 3.16535 4.25197C3.17323 4.28346 3.18504 4.31496 3.20079 4.34646H5.22047C5.22047 4.31496 5.22047 4.28346 5.22047 4.25197C5.22835 4.22047 5.23228 4.18898 5.23228 4.15748H3.14173ZM3.25984 4.53543C3.27559 4.56693 3.2874 4.59843 3.29528 4.62992C3.31102 4.66142 3.32677 4.69291 3.34252 4.72441H5.20866C5.20866 4.69291 5.20866 4.66142 5.20866 4.62992C5.20866 4.59843 5.20866 4.56693 5.20866 4.53543H3.25984ZM3.02362 3.02362C3.02362 3.05512 3.02362 3.08661 3.02362 3.11811C3.02362 3.14961 3.02362 3.1811 3.02362 3.2126H5.40945C5.41732 3.1811 5.4252 3.14961 5.43307 3.11811C5.44882 3.08661 5.46063 3.05512 5.4685 3.02362H3.02362ZM3.02362 3.40157C3.02362 3.43307 3.02362 3.46457 3.02362 3.49606C3.0315 3.52756 3.03543 3.55906 3.03543 3.59055H5.31496C5.32283 3.55906 5.33071 3.52756 5.33858 3.49606C5.34646 3.46457 5.35433 3.43307 5.3622 3.40157H3.02362ZM3.05906 3.77953C3.06693 3.81102 3.07087 3.84252 3.07087 3.87402C3.07874 3.90551 3.08661 3.93701 3.09449 3.9685H5.25591C5.26378 3.93701 5.26772 3.90551 5.26772 3.87402C5.27559 3.84252 5.27953 3.81102 5.27953 3.77953H3.05906Z" fill="black"/>
</svg>
